<svg viewBox="0 0 560.622 37.2227" xmlns="http://www.w3.org/2000/svg" xmlns:xlink="http://www.w3.org/1999/xlink" width="560.621887" height="37.222656" fill="none" customFrame="#000000">
	<defs>
		<linearGradient id="paint_linear_0" x1="280.501038" x2="280.501038" y1="0.501037598" y2="36.722187" gradientUnits="userSpaceOnUse">
			<stop stop-color="rgb(255,255,255)" offset="0" stop-opacity="0" />
			<stop stop-color="rgb(255,255,255)" offset="1" stop-opacity="1" />
		</linearGradient>
	</defs>
	<path id="Line" d="M0.668413 0.0298841C5.59315 1.77937 10.9437 3.51845 16.72 5.24713C22.7764 7.05962 29.1953 8.82884 35.9767 10.5548C50.7009 14.3023 66.5479 17.7057 83.5177 20.7652C102.289 24.1496 121.824 26.9988 142.123 29.3128C164.474 31.8609 187.309 33.7072 210.627 34.8516C236.118 36.1026 261.865 36.4975 287.867 36.0363C316.079 35.5357 344.35 34.0309 372.681 31.5217C403.202 28.8186 433.61 24.9658 463.906 19.9632C496.336 14.6082 528.495 7.95911 560.38 0.0158648L560.622 0.98621C528.708 8.93596 496.524 15.5905 464.069 20.9498C433.748 25.9565 403.314 29.8125 372.769 32.5178C344.413 35.0291 316.119 36.5352 287.885 37.0361C261.861 37.4978 236.092 37.1025 210.578 35.8504C187.238 34.705 164.382 32.857 142.009 30.3064C121.689 27.9899 102.133 25.1375 83.3403 21.7494C66.3473 18.6857 50.4772 15.2772 35.73 11.5239C28.9353 9.79453 22.503 8.02162 16.4333 6.20514C10.6408 4.47164 5.27429 2.72732 0.333663 0.972191L0.668413 0.0298841ZM0.359204 0.96004L0.333663 0.972191C0.0698166 0.878461 -0.0638459 0.597508 0.0298841 0.333663C0.123614 0.0698166 0.404567 -0.0638459 0.668413 0.0298841L0.680564 0.0554253L0.359204 0.96004Z" fill="url(#paint_linear_0)" fill-rule="nonzero" />
</svg>
