<svg viewBox="0 0 32 32" xmlns="http://www.w3.org/2000/svg" xmlns:xlink="http://www.w3.org/1999/xlink" width="32.000000" height="32.000000" fill="none" customFrame="#000000">
	<rect id="left arrow / 24 / Outline" width="32.000000" height="32.000000" x="0.000000" y="0.000000" fill="rgb(255,255,255)" fill-opacity="0" transform="matrix(-1,-8.74228e-08,8.74228e-08,-1,32,32)" />
	<path id="Vector" d="M3.22106 6.9944L7.94106 2.2744C8.1894 2.02458 8.32879 1.68665 8.32879 1.3344C8.32879 0.98215 8.1894 0.644214 7.94106 0.394398C7.81711 0.269426 7.66965 0.170234 7.50717 0.102542C7.34469 0.0348507 7.17041 0 6.9944 0C6.81838 0 6.64411 0.0348507 6.48163 0.102542C6.31915 0.170234 6.17168 0.269426 6.04773 0.394398L0.394398 6.04773C0.269426 6.17168 0.170234 6.31915 0.102543 6.48163C0.0348513 6.64411 0 6.81838 0 6.9944C0 7.17041 0.0348513 7.34469 0.102543 7.50717C0.170234 7.66965 0.269426 7.81711 0.394398 7.94106L6.04773 13.6611C6.17232 13.7846 6.32007 13.8824 6.48252 13.9488C6.64497 14.0151 6.81892 14.0487 6.9944 14.0477C7.16987 14.0487 7.34382 14.0151 7.50627 13.9488C7.66872 13.8824 7.81648 13.7846 7.94106 13.6611C8.1894 13.4112 8.32879 13.0733 8.32879 12.7211C8.32879 12.3688 8.1894 12.0309 7.94106 11.7811L3.22106 6.9944Z" fill="rgb(255,255,255)" fill-rule="nonzero" transform="matrix(-1,-8.74228e-08,8.74228e-08,-1,20.1677,22.9944)" />
</svg>
