<svg viewBox="0 0 16 16" xmlns="http://www.w3.org/2000/svg" xmlns:xlink="http://www.w3.org/1999/xlink" width="16.000000" height="16.000000" fill="none">
	<rect id="instagram / 24 / Outline" width="16.000000" height="16.000000" x="0.000000" y="0.000000" fill="rgb(255,255,255)" fill-opacity="0" />
	<path id="Vector" d="M11.5599 3.63967C11.4017 3.63967 11.247 3.68659 11.1155 3.7745C10.9839 3.8624 10.8814 3.98735 10.8208 4.13353C10.7603 4.27971 10.7444 4.44056 10.7753 4.59575C10.8062 4.75093 10.8824 4.89348 10.9942 5.00536C11.1061 5.11724 11.2487 5.19343 11.4038 5.2243C11.559 5.25517 11.7199 5.23933 11.8661 5.17878C12.0122 5.11823 12.1372 5.01569 12.2251 4.88413C12.313 4.75257 12.3599 4.5979 12.3599 4.43967C12.3599 4.2275 12.2756 4.02402 12.1256 3.87399C11.9756 3.72396 11.7721 3.63967 11.5599 3.63967ZM14.6266 5.25301C14.6136 4.69987 14.51 4.15261 14.3199 3.63301C14.1504 3.18843 13.8866 2.78586 13.5466 2.45301C13.2165 2.11129 12.813 1.84913 12.3666 1.68634C11.8484 1.49045 11.3005 1.38448 10.7466 1.37301C10.0399 1.33301 9.81325 1.33301 7.99992 1.33301C6.18658 1.33301 5.95992 1.33301 5.25325 1.37301C4.69935 1.38448 4.15148 1.49045 3.63325 1.68634C3.1877 1.85077 2.78454 2.11271 2.45325 2.45301C2.11154 2.78313 1.84937 3.18663 1.68659 3.63301C1.49069 4.15124 1.38473 4.69911 1.37325 5.25301C1.33325 5.95967 1.33325 6.18634 1.33325 7.99967C1.33325 9.81301 1.33325 10.0397 1.37325 10.7463C1.38473 11.3002 1.49069 11.8481 1.68659 12.3663C1.84937 12.8127 2.11154 13.2162 2.45325 13.5463C2.78454 13.8866 3.1877 14.1486 3.63325 14.313C4.15148 14.5089 4.69935 14.6149 5.25325 14.6263C5.95992 14.6663 6.18658 14.6663 7.99992 14.6663C9.81325 14.6663 10.0399 14.6663 10.7466 14.6263C11.3005 14.6149 11.8484 14.5089 12.3666 14.313C12.813 14.1502 13.2165 13.8881 13.5466 13.5463C13.8881 13.2147 14.1521 12.8118 14.3199 12.3663C14.51 11.8467 14.6136 11.2995 14.6266 10.7463C14.6266 10.0397 14.6666 9.81301 14.6666 7.99967C14.6666 6.18634 14.6666 5.95967 14.6266 5.25301ZM13.4266 10.6663C13.4217 11.0895 13.3451 11.5088 13.1999 11.9063C13.0935 12.1965 12.9225 12.4586 12.6999 12.673C12.4837 12.8933 12.2221 13.064 11.9333 13.173C11.5357 13.3182 11.1164 13.3948 10.6933 13.3997C10.0266 13.433 9.77992 13.4397 8.02658 13.4397C6.27325 13.4397 6.02658 13.4397 5.35992 13.3997C4.92051 13.4079 4.48298 13.3402 4.06659 13.1997C3.79044 13.0851 3.54082 12.9149 3.33325 12.6997C3.11198 12.4855 2.94315 12.2231 2.83992 11.933C2.67716 11.5298 2.58688 11.101 2.57325 10.6663C2.57325 9.99967 2.53325 9.75301 2.53325 7.99967C2.53325 6.24634 2.53325 5.99967 2.57325 5.33301C2.57624 4.90038 2.65522 4.47164 2.80659 4.06634C2.92395 3.78495 3.1041 3.53411 3.33325 3.33301C3.53579 3.10379 3.78611 2.92174 4.06659 2.79967C4.47295 2.65304 4.90125 2.57639 5.33325 2.57301C5.99992 2.57301 6.24658 2.53301 7.99992 2.53301C9.75325 2.53301 9.99992 2.53301 10.6666 2.57301C11.0898 2.57786 11.5091 2.65451 11.9066 2.79967C12.2095 2.91211 12.4814 3.09491 12.6999 3.33301C12.9184 3.53779 13.0891 3.78816 13.1999 4.06634C13.3481 4.4723 13.4248 4.90086 13.4266 5.33301C13.4599 5.99967 13.4666 6.24634 13.4666 7.99967C13.4666 9.75301 13.4599 9.99967 13.4266 10.6663ZM7.99992 4.57967C7.32379 4.58099 6.66323 4.78269 6.10169 5.15929C5.54015 5.53588 5.10284 6.07047 4.84501 6.69551C4.58718 7.32055 4.5204 8.00799 4.65311 8.67096C4.78583 9.33394 5.11208 9.9427 5.59064 10.4203C6.0692 10.898 6.67859 11.223 7.34182 11.3544C8.00506 11.4859 8.69236 11.4177 9.3169 11.1587C9.94143 10.8997 10.4752 10.4613 10.8507 9.89903C11.2262 9.33676 11.4266 8.6758 11.4266 7.99967C11.4275 7.54974 11.3394 7.10408 11.1674 6.68831C10.9954 6.27254 10.743 5.89488 10.4245 5.57704C10.106 5.2592 9.72788 5.00746 9.31178 4.83629C8.89568 4.66513 8.44985 4.57792 7.99992 4.57967ZM7.99992 10.2197C7.56084 10.2197 7.13163 10.0895 6.76655 9.84554C6.40148 9.6016 6.11693 9.25488 5.94891 8.84923C5.78088 8.44358 5.73692 7.99721 5.82258 7.56657C5.90823 7.13594 6.11967 6.74037 6.43014 6.4299C6.74061 6.11942 7.13618 5.90799 7.56682 5.82233C7.99746 5.73667 8.44382 5.78063 8.84948 5.94866C9.25513 6.11669 9.60184 6.40123 9.84578 6.76631C10.0897 7.13139 10.2199 7.5606 10.2199 7.99967C10.2199 8.29121 10.1625 8.57989 10.0509 8.84923C9.93937 9.11857 9.77584 9.36331 9.5697 9.56945C9.36355 9.7756 9.11882 9.93912 8.84948 10.0507C8.58013 10.1623 8.29145 10.2197 7.99992 10.2197Z" fill="rgb(255,255,255)" fill-rule="nonzero" />
</svg>
