<svg xmlns="http://www.w3.org/2000/svg" width="24" height="24" fill="none"><defs><clipPath id="a"><path fill="#FFF" d="M7.2 7.2h9.6v9.6H7.2z"/></clipPath></defs><circle cx="12" cy="12" r="11.5" stroke="#CDAAD0"/><g clip-path="url(#a)"><path fill="none" d="M7.2 7.2h9.6v9.6H7.2z"/><path d="M9.2 13.034h.3a.3.3 0 0 0-.18-.275l-.12.275zm5.6 0-.12-.275a.3.3 0 0 0-.18.275h.3zM13.5 10a.3.3 0 1 0 .6 0h-.6zm-3.6 0a.3.3 0 1 0 .6 0h-.6zm.1-1.1a2.3 2.3 0 0 0-2.3 2.3h.6A1.7 1.7 0 0 1 10 9.5v-.6zm4 .6a1.7 1.7 0 0 1 1.7 1.7h.6A2.3 2.3 0 0 0 14 8.9v.6zm-.8 6.2h-2.4v.6h2.4v-.6zm-2.4 0c-.386 0-.645 0-.838-.027-.184-.024-.264-.067-.316-.12l-.424.425c.182.182.41.256.66.29.243.033.55.032.918.032v-.6zm-1.9-1.3c0 .369 0 .675.032.918.034.251.108.478.29.66l.424-.424c-.052-.052-.094-.131-.12-.316-.025-.193-.026-.452-.026-.838h-.6zm5.6 0c0 .386 0 .645-.027.838-.025.185-.067.264-.12.316l.425.424c.182-.182.256-.409.29-.66.033-.243.032-.549.032-.918h-.6zm-1.3 1.9c.369 0 .675.001.918-.032.25-.033.478-.108.66-.29l-.424-.424c-.052.052-.132.095-.316.12-.193.025-.452.026-.838.026v.6zM10 9.5c.086 0 .17.007.251.019l.088-.594a2.317 2.317 0 0 0-.34-.025v.6zm2-1.8a2.101 2.101 0 0 0-1.99 1.425l.569.193A1.5 1.5 0 0 1 12 8.3v-.6zm-1.99 1.425a2.097 2.097 0 0 0-.11.675h.6c0-.169.028-.331.08-.482l-.57-.193zM14 8.9c-.115 0-.228.009-.339.025l.088.594c.083-.013.167-.019.251-.019v-.6zm-2-.6a1.5 1.5 0 0 1 1.42 1.018l.569-.193A2.101 2.101 0 0 0 12 7.7v.6zm1.42 1.018c.052.151.08.313.08.482h.6c0-.235-.04-.462-.111-.675l-.568.193zM9.5 14.4v-1.366h-.6V14.4h.6zm-.18-1.641A1.7 1.7 0 0 1 8.3 11.2h-.6a2.3 2.3 0 0 0 1.38 2.109l.24-.55zm5.18.275V14.4h.6v-1.366h-.6zm1.2-1.834a1.701 1.701 0 0 1-1.02 1.559l.24.55A2.3 2.3 0 0 0 16.3 11.2h-.6zm-2.2-1.4v.2h.6v-.2h-.6zm-3.6 0v.2h.6v-.2h-.6z" fill="#302B27"/><path d="m12 11.198-.208.217a.3.3 0 0 0 .416 0L12 11.198zm-.206 1.228a3.085 3.085 0 0 1-.49-.437c-.148-.17-.204-.303-.204-.389h-.6c0 .308.176.58.35.781.181.21.406.393.59.528l.354-.483zM11.1 11.6c0-.23.105-.33.197-.363.1-.035.285-.024.496.178l.415-.434c-.33-.316-.745-.438-1.11-.31-.373.131-.598.49-.598.929h.6zm1.46 1.31c.184-.136.409-.32.59-.529.174-.2.35-.473.35-.781h-.6c0 .086-.056.218-.204.389-.14.161-.324.314-.49.437l.354.484zm.94-1.31c0-.439-.225-.798-.598-.929-.365-.128-.78-.005-1.11.31l.416.434c.21-.202.395-.213.496-.178.09.032.196.133.196.363h.6zm-2.06 1.31c.147.108.313.242.56.242v-.6c-.01 0-.016 0-.038-.011a1.59 1.59 0 0 1-.168-.115l-.354.484zm.766-.484a1.59 1.59 0 0 1-.168.115c-.022.011-.028.011-.038.011v.6c.247 0 .413-.134.56-.242l-.354-.484z" opacity=".5" fill="#302B27"/><path d="M9.2 14.4h5.6" opacity=".5" stroke="#302B27" stroke-linecap="round" stroke-linejoin="round" stroke-width="1.5"/></g></svg>