<svg viewBox="0 0 64 64" xmlns="http://www.w3.org/2000/svg" xmlns:xlink="http://www.w3.org/1999/xlink" width="64.000000" height="64.000000" fill="none">
	<defs>
		<g id="pixso_custom_effect_0">
			<effect x="0.000000" y="0.000000" visibility="visible" fill="rgb(27.03,53.04,88.995)" fill-opacity="0.5" effectType="dropShadow" showShadowBehind="1" stdDeviation="4" radius="0" />
		</g>
		<filter id="filter_0" width="64.000000" height="64.000000" x="0.000000" y="0.000000" filterUnits="userSpaceOnUse" customEffect="url(#pixso_custom_effect_0)" color-interpolation-filters="sRGB">
			<feFlood flood-opacity="0" result="BackgroundImageFix" />
			<feOffset dx="0.000000" dy="0.000000" in="SourceAlpha" />
			<feGaussianBlur stdDeviation="1.33333337" />
			<feColorMatrix type="matrix" values="0 0 0 0 0.106 0 0 0 0 0.208 0 0 0 0 0.349 0 0 0 0.5 0 " />
			<feBlend result="effect_dropShadow_1" in2="BackgroundImageFix" mode="normal" />
			<feBlend result="shape" in="SourceGraphic" in2="effect_dropShadow_1" mode="normal" />
		</filter>
		<clipPath id="clipPath_1">
			<rect width="56.000000" height="56.000000" x="4.000000" y="4.000000" rx="28.000000" fill="rgb(255,255,255)" />
		</clipPath>
		<clipPath id="clipPath_2">
			<rect width="24.000000" height="24.000000" x="20.000000" y="20.000000" fill="rgb(255,255,255)" />
		</clipPath>
	</defs>
	<g clip-path="url(#clipPath_1)" filter="url(#filter_0)" customFrame="url(#clipPath_1)">
		<rect id="Icon / Information" width="56.000000" height="56.000000" x="4.000000" y="4.000000" rx="28.000000" fill="rgb(255,255,255)" />
		<g id="Plus / 24 / Outline" clip-path="url(#clipPath_2)" customFrame="url(#clipPath_2)">
			<rect id="Plus / 24 / Outline" width="24.000000" height="24.000000" x="20.000000" y="20.000000" fill="rgb(255,255,255)" fill-opacity="0" />
			<path id="Vector" d="M39 31L33 31L33 25C33 24.7348 32.8946 24.4804 32.7071 24.2929C32.5196 24.1054 32.2652 24 32 24C31.7348 24 31.4804 24.1054 31.2929 24.2929C31.1054 24.4804 31 24.7348 31 25L31 31L25 31C24.7348 31 24.4804 31.1054 24.2929 31.2929C24.1054 31.4804 24 31.7348 24 32C24 32.2652 24.1054 32.5196 24.2929 32.7071C24.4804 32.8946 24.7348 33 25 33L31 33L31 39C31 39.2652 31.1054 39.5196 31.2929 39.7071C31.4804 39.8946 31.7348 40 32 40C32.2652 40 32.5196 39.8946 32.7071 39.7071C32.8946 39.5196 33 39.2652 33 39L33 33L39 33C39.2652 33 39.5196 32.8946 39.7071 32.7071C39.8946 32.5196 40 32.2652 40 32C40 31.7348 39.8946 31.4804 39.7071 31.2929C39.5196 31.1054 39.2652 31 39 31Z" fill="rgb(0,17.085,44.115)" fill-rule="nonzero" />
		</g>
	</g>
</svg>
