<svg viewBox="0 0 40 40" xmlns="http://www.w3.org/2000/svg" xmlns:xlink="http://www.w3.org/1999/xlink" width="40.000000" height="40.000000" fill="none">
	<rect id="Icon / 360" width="40.000000" height="40.000000" x="0.000000" y="0.000000" fill="rgb(131,147,183)" fill-opacity="0" />
	<path id="Vector" d="M0 0L40 0L40 40L0 40L0 0Z" fill-rule="nonzero" />
	<path id="Vector" d="M20 11.6667C10.8 11.6667 3.33331 15.4 3.33331 20C3.33331 23.7334 8.23331 26.8834 15 27.95L15 33.3334L21.6666 26.6667L15 20L15 24.55C9.74998 23.6167 6.66665 21.3834 6.66665 20C6.66665 18.2334 11.7333 15 20 15C28.2666 15 33.3333 18.2334 33.3333 20C33.3333 21.2167 30.9 23.15 26.6666 24.2167L26.6666 27.6334C32.55 26.35 36.6666 23.4167 36.6666 20C36.6666 15.4 29.2 11.6667 20 11.6667Z" fill="rgb(255,255,255)" fill-rule="nonzero" />
</svg>
