<svg width="240" height="79" viewBox="0 0 240 79" fill="none" xmlns="http://www.w3.org/2000/svg">
<path fill-rule="evenodd" clip-rule="evenodd" d="M121.77 57.5676C124.31 60.2349 126.945 62.7435 129.676 65.0932C125.675 68.3956 121.325 71.0311 116.626 72.9999C111.926 74.9686 107.481 75.9529 103.289 75.9529C101.193 75.9529 99.1611 75.6672 97.1924 75.0956C95.2237 74.524 93.4772 73.6032 91.9531 72.333C90.4289 71.0629 89.2223 69.4435 88.3332 67.4747C87.3806 65.4425 86.9043 63.0292 86.9043 60.2349C86.9043 59.9563 86.9119 59.6776 86.927 59.3989C85.6447 60.8324 84.2553 62.0301 82.7587 62.9922C82.531 63.1353 82.3034 63.2712 82.0759 63.3999C82.1939 65.6487 82.6602 67.642 83.4749 69.38C84.364 71.4122 85.6024 73.1269 87.19 74.524C88.7777 75.8577 90.6512 76.842 92.8104 77.4771C94.9697 78.1757 97.2559 78.525 99.6692 78.525C102.146 78.525 104.718 78.2392 107.385 77.6676C110.116 77.0961 112.815 76.2705 115.482 75.1909C118.213 74.1112 120.881 72.8093 123.484 71.2852C126.088 69.761 128.597 68.0781 131.01 66.2364C131.581 66.7144 132.156 67.1831 132.732 67.6424C132.909 67.5789 133.089 67.5168 133.271 67.4562C134.074 67.1884 134.85 66.9484 135.598 66.7362C134.72 66.0484 133.858 65.342 133.01 64.6169C134.754 63.0836 136.341 61.4792 137.772 59.8036C137.762 58.6438 137.752 57.5116 137.74 56.4069C136.037 58.888 133.984 61.2118 131.582 63.3785C125.612 58.2345 120.531 52.7093 116.34 46.8032C115.616 45.7562 114.923 44.7121 114.262 43.671C114.253 43.8977 114.206 44.0981 114.119 44.2722C114.023 44.4322 113.927 44.5122 113.831 44.5122C113.703 44.5122 113.607 44.3842 113.543 44.1282C113.447 43.8402 113.399 43.3762 113.399 42.7362C113.416 42.6157 113.434 42.4959 113.455 42.3768C110.73 37.924 108.58 33.525 107.004 29.1799C108.909 27.1477 110.719 25.179 112.434 23.2738C114.212 21.3051 115.736 19.4316 117.007 17.6534C118.34 15.8117 119.388 14.0335 120.15 12.3188C120.976 10.6041 121.389 8.95293 121.389 7.36525C121.389 4.82497 120.69 3.01501 119.293 1.9354C117.896 0.792267 116.34 0.220703 114.625 0.220703C113.164 0.220703 111.609 0.6335 109.957 1.45909C108.37 2.22118 106.909 3.3008 105.575 4.69795C104.242 6.09511 103.13 7.77805 102.241 9.74677C101.416 11.7155 101.003 13.8747 101.003 16.2245C101.003 20.2254 101.924 24.7027 103.765 29.6563L96.1445 37.2771C93.6043 39.8809 91.2862 42.5482 89.1905 45.279C87.0948 48.0098 85.3801 50.8041 84.0464 53.6619C82.7128 56.4563 82.046 59.3141 82.046 62.2354L82.0462 62.3373C82.352 62.1656 82.6535 61.9839 82.9507 61.7922C83.9427 61.1202 84.8547 60.3682 85.6867 59.5362C86.2055 59.0174 86.6666 58.4987 87.07 57.9799C87.3049 56.3818 87.7894 54.7837 88.5237 53.1856C89.5398 50.7724 90.8735 48.3909 92.5246 46.0411C94.1758 43.6278 96.0493 41.2463 98.145 38.8965C100.304 36.4833 102.464 34.1018 104.623 31.752C105.829 34.6098 107.29 37.5311 109.005 40.516C110.783 43.4373 112.72 46.3269 114.816 49.1847C116.975 52.0425 119.293 54.8368 121.77 57.5676ZM139.264 53.9844L139.271 54.5442C139.299 55.6772 139.321 56.7827 139.336 57.8607C140.297 56.5945 141.173 55.2902 141.965 53.9477C143.443 51.4713 144.456 48.9447 145.004 46.3678C144.22 46.5387 143.429 46.6242 142.631 46.6242C142.404 46.6242 142.197 46.6141 142.012 46.594C141.572 49.0516 140.699 51.4394 139.393 53.7572C139.35 53.8331 139.307 53.9088 139.264 53.9844ZM136.072 67.105C137.841 68.4699 139.67 69.7601 141.56 70.9755C140.743 71.3055 139.916 71.6044 139.079 71.8722C138.949 71.9142 138.82 71.9551 138.69 71.9949C136.852 70.7698 135.038 69.4552 133.249 68.051C134.172 67.6897 135.112 67.3744 136.072 67.105ZM141.774 73.9525C141.006 73.4887 140.241 73.0096 139.481 72.5154C139.619 72.478 139.757 72.4396 139.895 72.4002C140.783 72.157 141.657 71.8841 142.517 71.5816C146.091 73.8086 149.876 75.7738 153.873 77.4771C154.317 77.7311 154.539 77.9534 154.539 78.1439C154.539 78.3345 154.412 78.525 154.158 78.7155C153.904 78.906 153.523 79.0013 153.015 79.0013C149.205 77.7947 145.458 76.1117 141.774 73.9525ZM143.735 42.9762C143.201 43.2338 142.731 43.5021 142.324 43.781C142.339 43.4559 142.346 43.1296 142.346 42.8022C142.346 41.5321 142.155 40.2619 141.774 38.9918C141.457 37.6582 140.79 36.261 139.774 34.8003C139.774 34.6733 139.964 34.5463 140.346 34.4193C140.727 34.2288 141.076 34.1335 141.393 34.1335C142.282 34.1335 142.981 34.451 143.489 35.0861C144.061 35.6577 144.473 36.3563 144.727 37.1818C145.045 38.0074 145.236 38.8648 145.299 39.7539C145.426 40.5795 145.49 41.2463 145.49 41.7544C145.49 41.9393 145.487 42.1239 145.483 42.3083C144.847 42.5066 144.264 42.7292 143.735 42.9762ZM145.106 45.8622C145.283 44.9246 145.399 43.9804 145.453 43.0295C145.156 43.1346 144.872 43.2448 144.599 43.3602C143.799 43.7122 143.143 44.0802 142.631 44.4642C142.482 44.5832 142.356 44.6976 142.254 44.8074C142.222 45.1545 142.181 45.5003 142.132 45.8447C142.348 45.9804 142.722 46.0482 143.255 46.0482C143.885 46.0482 144.502 45.9862 145.106 45.8622ZM116.34 3.84061C117.356 4.79321 117.864 6.38089 117.864 8.60364C117.864 10.0643 117.546 11.5567 116.911 13.0809C116.34 14.5416 115.514 16.0657 114.435 17.6534C113.418 19.1776 112.212 20.7335 110.815 22.3212C109.418 23.9089 107.925 25.5283 106.337 27.1795C105.004 23.115 104.337 19.2728 104.337 15.6529C104.337 13.6842 104.623 11.8743 105.194 10.2231C105.766 8.57189 106.464 7.17473 107.29 6.0316C108.179 4.82497 109.132 3.90412 110.148 3.26905C111.227 2.63397 112.244 2.31644 113.196 2.31644C114.339 2.31644 115.387 2.8245 116.34 3.84061Z" fill="#FFA55C"/>
<path d="M18.24 44.1282C18.24 42.1442 18.112 40.4962 17.856 39.1842C17.632 37.8722 17.312 37.2162 16.896 37.2162C16.64 37.2162 16.4 37.4082 16.176 37.7922C15.952 38.1442 15.76 38.6562 15.6 39.3282C15.472 39.9682 15.36 40.7362 15.264 41.6322C15.2 42.4962 15.168 43.4402 15.168 44.4642C15.168 46.2882 15.296 48.2562 15.552 50.3682C15.808 52.4482 16.256 54.4642 16.896 56.4162C17.344 54.3682 17.68 52.2722 17.904 50.1282C18.128 47.9522 18.24 45.9522 18.24 44.1282ZM38.352 22.3362C38.352 22.4962 38.288 22.6242 38.16 22.7202C38.032 22.8162 37.872 22.9282 37.68 23.0562C36.72 23.6322 35.936 24.4322 35.328 25.4562C34.72 26.4802 34.224 27.6002 33.84 28.8162C33.488 30.0322 33.248 31.2802 33.12 32.5602C32.992 33.8082 32.928 34.9602 32.928 36.0162C32.928 36.7522 32.96 37.6642 33.024 38.7522C33.12 39.8082 33.216 40.9762 33.312 42.2562C33.44 43.5362 33.536 44.8962 33.6 46.3362C33.696 47.7442 33.744 49.1842 33.744 50.6562C33.744 52.7362 33.616 54.7522 33.36 56.7042C33.136 58.6562 32.672 60.4002 31.968 61.9362C31.296 63.4722 30.352 64.7042 29.136 65.6322C27.92 66.5602 26.336 67.0242 24.384 67.0242C23.488 67.0242 22.64 66.8482 21.84 66.4962C21.072 66.1762 20.352 65.7122 19.68 65.1042C19.04 64.4962 18.448 63.7922 17.904 62.9922C17.392 62.1922 16.928 61.3122 16.512 60.3522C16.096 61.4722 15.6 62.5122 15.024 63.4722C14.48 64.4322 13.872 65.2642 13.2 65.9682C12.528 66.6722 11.792 67.2162 10.992 67.6002C10.192 67.9842 9.34399 68.1762 8.44799 68.1762C7.07199 68.1762 5.90399 67.8242 4.94399 67.1202C4.01599 66.4162 3.24799 65.4882 2.63999 64.3362C2.03199 63.2162 1.55199 61.9362 1.19999 60.4962C0.879991 59.0242 0.639991 57.5362 0.479991 56.0322C0.319991 54.4962 0.207991 53.0082 0.143991 51.5682C0.111991 50.0962 0.0799912 48.8002 0.0479912 47.6802C-0.0160088 45.6642 0.0159912 43.7602 0.143991 41.9682C0.303991 40.1442 0.479991 38.5122 0.671991 37.0722C0.863991 35.6002 1.05599 34.3362 1.24799 33.2802C1.43999 32.2242 1.56799 31.4402 1.63199 30.9282C1.66399 30.7362 1.85599 30.6082 2.20799 30.5442C2.59199 30.4802 2.92799 30.4482 3.21599 30.4482C3.43999 30.4482 3.63199 30.4802 3.79199 30.5442C3.95199 30.5762 4.03199 30.6722 4.03199 30.8322C4.03199 31.0242 3.95199 31.3602 3.79199 31.8402C3.63199 32.2882 3.39199 33.1522 3.07199 34.4322C2.94399 35.0082 2.79999 35.8402 2.63999 36.9282C2.51199 37.9842 2.38399 39.1842 2.25599 40.5282C2.15999 41.8722 2.07999 43.3122 2.01599 44.8482C1.95199 46.3522 1.91999 47.8242 1.91999 49.2642C1.91999 50.3842 1.96799 51.6162 2.06399 52.9602C2.15999 54.2722 2.31999 55.5842 2.54399 56.8962C2.76799 58.1762 3.07199 59.4242 3.45599 60.6402C3.83999 61.8562 4.30399 62.9282 4.84799 63.8562C5.42399 64.7842 6.09599 65.5202 6.86399 66.0642C7.63199 66.6402 8.52799 66.9282 9.55199 66.9282C10.32 66.9282 11.024 66.7362 11.664 66.3522C12.304 65.9682 12.896 65.4242 13.44 64.7202C13.984 64.0482 14.464 63.2482 14.88 62.3202C15.328 61.3922 15.728 60.3842 16.08 59.2962C15.344 57.2802 14.8 55.1362 14.448 52.8642C14.096 50.5922 13.92 48.4962 13.92 46.5762C13.92 45.1682 13.968 43.7762 14.064 42.4002C14.192 41.0242 14.368 39.7922 14.592 38.7042C14.816 37.6162 15.104 36.7362 15.456 36.0642C15.808 35.3922 16.224 35.0562 16.704 35.0562C17.088 35.0562 17.424 35.2962 17.712 35.7762C18.032 36.2562 18.288 36.9122 18.48 37.7442C18.704 38.5762 18.864 39.5682 18.96 40.7202C19.088 41.8402 19.152 43.0562 19.152 44.3682C19.152 46.4802 19.008 48.7042 18.72 51.0402C18.432 53.3442 17.984 55.6002 17.376 57.8082C17.792 58.9282 18.272 59.9682 18.816 60.9282C19.36 61.8562 19.968 62.6722 20.64 63.3762C21.344 64.0802 22.112 64.6242 22.944 65.0082C23.808 65.4242 24.752 65.6322 25.776 65.6322C27.184 65.6322 28.336 65.2802 29.232 64.5762C30.128 63.9042 30.832 62.9762 31.344 61.7922C31.856 60.5762 32.208 59.1842 32.4 57.6162C32.592 56.0162 32.688 54.3042 32.688 52.4802C32.688 50.8482 32.624 49.1682 32.496 47.4402C32.4 45.7122 32.288 44.0002 32.16 42.3042C32.032 40.5762 31.904 38.9122 31.776 37.3122C31.68 35.6802 31.632 34.1762 31.632 32.8002C31.632 31.8082 31.776 30.6562 32.064 29.3442C32.384 28.0322 32.8 26.8002 33.312 25.6482C33.856 24.4642 34.464 23.4722 35.136 22.6722C35.84 21.8402 36.576 21.4242 37.344 21.4242C37.568 21.4242 37.792 21.5362 38.016 21.7602C38.24 21.9522 38.352 22.1442 38.352 22.3362Z" fill="#FFF9F4"/>
<path fill-rule="evenodd" clip-rule="evenodd" d="M76.0867 65.1042C78.0702 65.1042 80.0666 64.5361 82.0759 63.3999C82.3034 63.2712 82.531 63.1353 82.7587 62.9922C84.2553 62.0301 85.6447 60.8324 86.927 59.3989C87.564 58.6868 88.1746 57.9166 88.7587 57.0882C88.984 56.8014 89.1831 56.5016 89.356 56.1887C89.4167 57.2843 89.6012 58.2562 89.9096 59.1042C90.2936 60.1602 90.8056 61.0402 91.4456 61.7442C92.0856 62.4482 92.8376 62.9762 93.7016 63.3282C94.5976 63.6802 95.5576 63.8562 96.5816 63.8562C98.4056 63.8562 100.31 63.2962 102.294 62.1762C104.31 61.0242 106.102 59.3282 107.67 57.0882C108.022 56.6082 108.31 56.1282 108.534 55.6482C108.79 55.1362 109.03 54.6402 109.254 54.1602L108.342 53.9202C108.086 54.4322 107.83 54.9602 107.574 55.5042C107.35 56.0162 107.062 56.4962 106.71 56.9442C105.334 58.8002 103.862 60.1762 102.294 61.0722C100.726 61.9362 99.2216 62.3682 97.7816 62.3682C95.8616 62.3682 94.2936 61.6802 93.0776 60.3042C94.7096 58.8642 95.9576 57.3122 96.8216 55.6482C97.7176 53.9522 98.1656 52.3842 98.1656 50.9442C98.1656 49.8882 97.8936 49.0242 97.3496 48.3522C96.8056 47.6482 95.9416 47.2962 94.7576 47.2962C94.0216 47.2962 93.3176 47.5362 92.6456 48.0162C92.0056 48.4962 91.4296 49.1202 90.9176 49.8882C90.4376 50.6562 90.0536 51.5202 89.7656 52.4802C89.6213 52.9611 89.5132 53.442 89.4412 53.9229L89.4307 53.9202L88.6627 55.4562C88.4067 55.9682 88.1187 56.4642 87.7987 56.9442C87.5814 57.2894 87.3384 57.6347 87.07 57.9799C86.6666 58.4987 86.2055 59.0174 85.6867 59.5362C84.8547 60.3682 83.9427 61.1202 82.9507 61.7922C82.6535 61.9839 82.352 62.1656 82.0462 62.3373C81.3312 62.7385 80.5928 63.0848 79.8307 63.3762C78.7427 63.7602 77.6707 63.9522 76.6147 63.9522C75.7507 63.9522 74.9187 63.7922 74.1187 63.4722C73.3187 63.1522 72.5987 62.6242 71.9587 61.8882C71.8627 61.7602 71.8147 61.6642 71.8147 61.6002C71.8147 61.5682 71.8467 61.5522 71.9107 61.5522C72.7747 61.4882 73.7347 61.3122 74.7907 61.0242C75.8467 60.7362 76.8387 60.3042 77.7667 59.7282C78.6947 59.1202 79.4627 58.3682 80.0707 57.4722C80.7107 56.5762 81.0307 55.4882 81.0307 54.2082C81.0307 52.8642 80.5827 51.8882 79.6867 51.2802C78.7907 50.6722 77.7347 50.3682 76.5187 50.3682C75.7507 50.3682 75.0147 50.4962 74.3107 50.7522C73.6387 51.0082 72.9987 51.3442 72.3907 51.7602C71.8147 52.1762 71.2547 52.6562 70.7107 53.2002C70.1987 53.7122 69.7347 54.2402 69.3187 54.7842C68.3587 56.0322 67.4787 57.5202 66.6787 59.2482C66.6147 58.0962 66.5667 57.0082 66.5347 55.9842C66.5347 54.9602 66.5027 53.9682 66.4387 53.0082C67.4307 51.6962 68.3907 50.1602 69.3187 48.4002C70.2787 46.6082 71.1267 44.7522 71.8627 42.8322C72.5987 40.9122 73.1907 39.0082 73.6387 37.1202C74.0867 35.2002 74.3107 33.4402 74.3107 31.8402C74.3107 30.9122 74.2147 30.0642 74.0227 29.2962C73.8627 28.4962 73.5907 27.8242 73.2067 27.2802C72.8227 26.7042 72.3107 26.2722 71.6707 25.9842C71.0627 25.6642 70.3107 25.5042 69.4147 25.5042C68.5507 25.5042 67.7987 25.7922 67.1587 26.3682C66.5187 26.9122 65.9907 27.6642 65.5747 28.6242C65.1587 29.5522 64.8547 30.6402 64.6627 31.8882C64.4707 33.1042 64.3747 34.3682 64.3747 35.6802C64.3747 37.3442 64.4067 39.1682 64.4707 41.1522C64.5347 43.1362 64.6147 45.1362 64.7107 47.1522C64.8067 49.1362 64.8867 51.0722 64.9507 52.9602C64.9714 53.5584 64.9887 54.1351 65.0027 54.6901L64.6196 55.4562C64.3636 55.9682 64.0756 56.4642 63.7556 56.9442C62.4116 58.8962 61.0356 60.3842 59.6276 61.4082C58.2516 62.4322 56.9556 62.9442 55.7396 62.9442C54.1396 62.9442 52.8916 62.1122 51.9956 60.4482C52.6356 59.5842 53.1476 58.6242 53.5316 57.5682C53.9156 56.4802 54.1076 55.2642 54.1076 53.9202C54.1076 52.5762 53.5316 51.9042 52.3796 51.9042C51.5476 51.9042 50.9076 52.3522 50.4596 53.2482C50.0116 54.1442 49.7876 55.2002 49.7876 56.4162C49.7876 58.2722 50.0436 59.7762 50.5556 60.9282C49.6276 61.9202 48.5716 62.6882 47.3876 63.2322C46.2036 63.7762 45.0676 64.0482 43.9796 64.0482C42.6356 64.0482 41.5156 63.6162 40.6196 62.7522C39.7236 61.8882 39.2756 60.4962 39.2756 58.5762C39.2756 57.5842 39.4676 56.5762 39.8516 55.5522C40.2356 54.5282 40.7796 53.6002 41.4836 52.7682C42.1876 51.9042 43.0356 51.2162 44.0276 50.7042C45.0516 50.1602 46.1876 49.8882 47.4356 49.8882C48.3636 49.8882 49.0676 50.0002 49.5476 50.2242C50.0276 50.4162 50.4596 50.6882 50.8436 51.0402H50.8916C50.9236 51.0402 50.9556 51.0562 50.9876 51.0882C51.0836 51.0882 51.1956 51.0562 51.3236 50.9922C51.4516 50.9282 51.5156 50.8322 51.5156 50.7042C51.5156 50.4162 51.1796 50.1122 50.5076 49.7922C49.8356 49.4402 48.8916 49.2642 47.6756 49.2642C46.1716 49.2642 44.7796 49.5842 43.4996 50.2242C42.2196 50.8642 41.0996 51.6802 40.1396 52.6722C39.2116 53.6322 38.4916 54.7202 37.9796 55.9362C37.4356 57.1202 37.1636 58.2882 37.1636 59.4402C37.1636 60.4002 37.3236 61.2482 37.6436 61.9842C37.9636 62.6882 38.3956 63.2802 38.9396 63.7602C39.4516 64.2082 40.0596 64.5442 40.7636 64.7682C41.4996 64.9922 42.2676 65.1042 43.0676 65.1042C44.4116 65.1042 45.7716 64.8162 47.1476 64.2402C48.5556 63.6642 49.8196 62.8162 50.9396 61.6962C51.8996 63.4242 53.2916 64.2882 55.1156 64.2882C56.5556 64.2882 58.1076 63.6962 59.7716 62.5122C61.4356 61.3282 63.0836 59.5202 64.7156 57.0882C64.8271 56.9209 64.9348 56.7536 65.0385 56.5863C65.044 57.0434 65.0467 57.4827 65.0467 57.9042C65.0467 58.3202 65.0307 58.7842 64.9987 59.2962C64.9667 59.7762 64.9507 60.2562 64.9507 60.7362C64.9187 61.2162 64.8867 61.6642 64.8547 62.0802C64.8227 62.4962 64.8067 62.8482 64.8067 63.1362C64.7747 63.8082 64.9347 64.1442 65.2867 64.1442C65.4467 64.1442 65.5907 64.0802 65.7187 63.9522C65.8467 63.8242 65.9907 63.4882 66.1507 62.9442C66.4387 61.9522 66.8707 60.8002 67.4467 59.4882C68.0227 58.1442 68.7107 56.8802 69.5107 55.6962C70.3427 54.4802 71.2707 53.4562 72.2947 52.6242C73.3187 51.7602 74.4387 51.3282 75.6547 51.3282C76.8387 51.3282 77.6707 51.6802 78.1507 52.3842C78.6627 53.0882 78.9187 53.9202 78.9187 54.8802C78.9187 55.6482 78.7427 56.4002 78.3907 57.1362C78.0387 57.8402 77.5427 58.4802 76.9027 59.0562C76.2947 59.6002 75.5587 60.0482 74.6947 60.4002C73.8307 60.7522 72.9027 60.9282 71.9107 60.9282C71.2707 60.9282 70.7747 60.8482 70.4227 60.6882C70.1027 60.4962 69.8147 60.4002 69.5587 60.4002C69.3667 60.3362 69.2547 60.3042 69.2227 60.3042C68.8387 60.3042 68.6467 60.4482 68.6467 60.7362C68.6467 60.8642 68.7107 61.0082 68.8387 61.1682C69.7987 62.5442 70.9027 63.5362 72.1507 64.1442C73.3987 64.7842 74.7107 65.1042 76.0867 65.1042ZM72.9667 32.7042C72.9667 30.8802 72.6627 29.4242 72.0547 28.3362C71.4787 27.2162 70.5027 26.6562 69.1267 26.6562C68.6467 26.6562 68.1987 26.8162 67.7827 27.1362C67.3987 27.4242 67.0627 27.8242 66.7747 28.3362C66.4867 28.8482 66.2627 29.4402 66.1027 30.1122C65.9427 30.7842 65.8627 31.5042 65.8627 32.2722C65.8627 34.3842 65.8787 36.3042 65.9107 38.0322C65.9427 39.7602 65.9747 41.3922 66.0067 42.9282C66.0707 44.4642 66.1347 45.9522 66.1987 47.3922C66.2627 48.8322 66.3267 50.3042 66.3907 51.8082C67.3187 50.5602 68.1827 49.1362 68.9827 47.5362C69.7827 45.9042 70.4707 44.2402 71.0467 42.5442C71.6547 40.8162 72.1187 39.1042 72.4387 37.4082C72.7907 35.7122 72.9667 34.1442 72.9667 32.7042ZM53.0996 53.0562C53.2596 53.3442 53.3396 53.7282 53.3396 54.2082C53.3396 55.2322 53.1796 56.2082 52.8596 57.1362C52.5716 58.0642 52.1556 58.8962 51.6116 59.6322C51.0996 58.4802 50.7956 57.0562 50.6996 55.3602C50.6676 54.5602 50.7956 53.9042 51.0836 53.3922C51.3716 52.8482 51.7876 52.5762 52.3316 52.5762C52.6836 52.5762 52.9396 52.7362 53.0996 53.0562ZM97.1096 51.1842C97.1096 50.3202 96.8856 49.6162 96.4376 49.0722C96.0216 48.4962 95.3336 48.2082 94.3736 48.2082C93.8616 48.2082 93.3976 48.3682 92.9816 48.6882C92.5656 49.0082 92.2136 49.4402 91.9256 49.9842C91.6376 50.4962 91.4136 51.1042 91.2536 51.8082C91.0936 52.5122 91.0136 53.2482 91.0136 54.0162C91.0136 55.2322 91.1416 56.3202 91.3976 57.2802C91.6856 58.2082 92.0856 59.0242 92.5976 59.7282C93.2696 59.1842 93.8776 58.5602 94.4216 57.8562C94.9656 57.1522 95.4296 56.4162 95.8136 55.6482C96.2296 54.8802 96.5496 54.1122 96.7736 53.3442C96.9976 52.5762 97.1096 51.8562 97.1096 51.1842Z" fill="#FFF9F4"/>
<path fill-rule="evenodd" clip-rule="evenodd" d="M113.455 42.3768C113.434 42.4959 113.416 42.6157 113.399 42.7362C113.399 43.3762 113.447 43.8402 113.543 44.1282C113.607 44.3842 113.703 44.5122 113.831 44.5122C113.927 44.5122 114.023 44.4322 114.119 44.2722C114.206 44.0981 114.253 43.8977 114.262 43.671C114.262 43.6477 114.263 43.6241 114.263 43.6002C114.263 41.5842 114.887 39.7442 116.135 38.0802C117.383 36.4162 118.999 34.9282 120.983 33.6162C122.967 32.3042 125.175 31.1522 127.607 30.1602C130.039 29.1682 132.423 28.3522 134.759 27.7122C137.127 27.0402 139.319 26.5442 141.335 26.2242C143.383 25.9042 144.983 25.7442 146.135 25.7442C147.831 25.7442 149.271 25.9362 150.455 26.3202C151.671 26.7042 152.647 27.2162 153.383 27.8562C154.151 28.4962 154.695 29.2642 155.015 30.1602C155.367 31.0242 155.543 31.9362 155.543 32.8962C155.543 34.3362 155.223 35.8082 154.583 37.3122C153.943 38.7842 153.095 40.1442 152.039 41.3922H151.463C149.895 41.3922 148.455 41.5522 147.143 41.8722C146.554 42.0014 146.001 42.1468 145.483 42.3083C144.847 42.5066 144.264 42.7292 143.735 42.9762C143.201 43.2338 142.731 43.5021 142.324 43.781C142.024 43.9869 141.758 44.1987 141.527 44.4162C141.015 44.8962 140.759 45.3282 140.759 45.7122C140.759 46.2096 141.176 46.5035 142.012 46.594C142.197 46.6141 142.404 46.6242 142.631 46.6242C143.429 46.6242 144.22 46.5387 145.004 46.3678C145.951 46.1616 146.888 45.8311 147.815 45.3762C149.543 44.5442 151.127 43.4562 152.567 42.1122C156.119 42.3042 158.663 43.0402 160.199 44.3202C161.767 45.5682 162.551 47.1362 162.551 49.0242C162.551 50.5602 162.119 52.2242 161.255 54.0162C160.391 55.7762 159.207 57.5522 157.703 59.3442C156.199 61.1042 154.439 62.8002 152.423 64.4322C150.439 66.0962 148.311 67.5522 146.039 68.8002C144.58 69.6339 143.087 70.359 141.56 70.9755C140.743 71.3055 139.916 71.6044 139.079 71.8722C138.949 71.9142 138.82 71.9551 138.69 71.9949C136.457 72.6811 134.266 73.0242 132.119 73.0242C131.831 73.0242 131.495 72.9922 131.111 72.9282C130.727 72.8962 130.359 72.8162 130.007 72.6882C129.655 72.5602 129.351 72.3842 129.095 72.1602C128.871 71.9682 128.759 71.6962 128.759 71.3442C128.759 70.8322 129.191 70.2722 130.055 69.6642C130.919 69.0882 131.959 68.5602 133.175 68.0802L133.249 68.051C134.172 67.6897 135.112 67.3744 136.072 67.105C136.353 67.0261 136.635 66.9512 136.919 66.8802C138.199 66.5602 139.255 66.4002 140.087 66.4002H140.711C140.871 66.4002 140.951 66.3202 140.951 66.1602C140.951 66.0642 140.903 65.9682 140.807 65.8722C140.711 65.7762 140.567 65.7282 140.375 65.7282C140.119 65.7282 139.623 65.7922 138.887 65.9202C138.151 66.0802 137.287 66.2882 136.295 66.5442C136.065 66.6054 135.833 66.6694 135.598 66.7362C134.85 66.9484 134.074 67.1884 133.271 67.4562C133.089 67.5168 132.909 67.5789 132.732 67.6424C131.881 67.9474 131.085 68.2854 130.343 68.6562C129.447 69.1042 128.711 69.5842 128.135 70.0962C127.559 70.6402 127.271 71.2002 127.271 71.7762C127.271 72.1922 127.431 72.5122 127.751 72.7362C128.071 72.9922 128.455 73.1682 128.903 73.2642C129.351 73.3922 129.831 73.4722 130.343 73.5042C130.887 73.5362 131.383 73.5522 131.831 73.5522C134.381 73.5522 136.931 73.2066 139.481 72.5154C139.619 72.478 139.757 72.4396 139.895 72.4002C140.783 72.157 141.657 71.8841 142.517 71.5816C144.261 70.9684 145.946 70.2333 147.575 69.3762C150.007 68.0962 152.279 66.6242 154.391 64.9602C156.503 63.2962 158.327 61.5682 159.863 59.7762C161.399 57.9842 162.599 56.1762 163.463 54.3522C164.359 52.5282 164.807 50.8322 164.807 49.2642C164.807 48.2082 164.583 47.2322 164.135 46.3362C163.719 45.4082 163.047 44.6082 162.119 43.9362C161.191 43.2322 159.991 42.6722 158.519 42.2562C157.047 41.8082 155.287 41.5362 153.239 41.4402C154.679 40.0002 155.815 38.4482 156.647 36.7842C157.511 35.0882 157.943 33.4562 157.943 31.8882C157.943 30.9282 157.751 30.0162 157.367 29.1522C156.983 28.2882 156.359 27.5522 155.495 26.9442C154.631 26.3042 153.511 25.8082 152.135 25.4562C150.791 25.0722 149.143 24.8802 147.191 24.8802C145.847 24.8802 144.119 25.0402 142.007 25.3602C139.927 25.6482 137.671 26.1122 135.239 26.7522C132.839 27.3602 130.407 28.1442 127.943 29.1042C125.479 30.0642 123.223 31.2162 121.175 32.5602C119.095 33.8722 117.351 35.3762 115.943 37.0722C114.616 38.67 113.787 40.4382 113.455 42.3768ZM145.106 45.8622C144.502 45.9862 143.885 46.0482 143.255 46.0482C142.722 46.0482 142.348 45.9804 142.132 45.8447C141.985 45.7521 141.911 45.6279 141.911 45.4722C141.911 45.2734 142.025 45.0518 142.254 44.8074C142.356 44.6976 142.482 44.5832 142.631 44.4642C143.143 44.0802 143.799 43.7122 144.599 43.3602C144.872 43.2448 145.156 43.1346 145.453 43.0295C146.062 42.814 146.721 42.6203 147.431 42.4482C148.519 42.1922 149.655 42.0642 150.839 42.0642H151.415C150.295 43.2482 149.031 44.2082 147.623 44.9442C146.812 45.3781 145.973 45.6841 145.106 45.8622Z" fill="#FFF9F4"/>
<path fill-rule="evenodd" clip-rule="evenodd" d="M218.884 57.0882C219.109 56.8014 219.308 56.5016 219.481 56.1887C219.542 57.2843 219.726 58.2562 220.035 59.1042C220.419 60.1602 220.931 61.0402 221.571 61.7442C222.211 62.4482 222.963 62.9762 223.827 63.3282C224.723 63.6802 225.683 63.8562 226.707 63.8562C228.531 63.8562 230.435 63.2962 232.419 62.1762C234.435 61.0242 236.227 59.3282 237.795 57.0882C238.147 56.6082 238.435 56.1282 238.659 55.6482C238.915 55.1362 239.155 54.6402 239.379 54.1602L238.467 53.9202C238.211 54.4322 237.955 54.9602 237.699 55.5042C237.475 56.0162 237.187 56.4962 236.835 56.9442C235.459 58.8002 233.987 60.1762 232.419 61.0722C230.851 61.9362 229.347 62.3682 227.907 62.3682C225.987 62.3682 224.419 61.6802 223.203 60.3042C224.835 58.8642 226.083 57.3122 226.947 55.6482C227.843 53.9522 228.291 52.3842 228.291 50.9442C228.291 49.8882 228.019 49.0242 227.475 48.3522C226.931 47.6482 226.067 47.2962 224.883 47.2962C224.147 47.2962 223.443 47.5362 222.771 48.0162C222.131 48.4962 221.555 49.1202 221.043 49.8882C220.563 50.6562 220.179 51.5202 219.891 52.4802C219.746 52.9611 219.638 53.442 219.566 53.9229L219.556 53.9202L218.788 55.4562C218.532 55.9682 218.244 56.4642 217.924 56.9442C217.38 57.8082 216.676 58.6722 215.812 59.5362C214.98 60.3682 214.068 61.1202 213.076 61.7922C212.084 62.4322 211.044 62.9602 209.956 63.3762C208.868 63.7602 207.796 63.9522 206.74 63.9522C205.876 63.9522 205.044 63.7922 204.244 63.4722C203.444 63.1522 202.724 62.6242 202.084 61.8882C201.988 61.7602 201.94 61.6642 201.94 61.6002C201.94 61.5682 201.972 61.5522 202.036 61.5522C202.9 61.4882 203.86 61.3122 204.916 61.0242C205.972 60.7362 206.964 60.3042 207.892 59.7282C208.82 59.1202 209.588 58.3682 210.196 57.4722C210.836 56.5762 211.156 55.4882 211.156 54.2082C211.156 52.8642 210.708 51.8882 209.812 51.2802C208.916 50.6722 207.86 50.3682 206.644 50.3682C205.876 50.3682 205.14 50.4962 204.436 50.7522C203.764 51.0082 203.124 51.3442 202.516 51.7602C201.94 52.1762 201.38 52.6562 200.836 53.2002C200.324 53.7122 199.86 54.2402 199.444 54.7842C198.484 56.0322 197.604 57.5202 196.804 59.2482C196.74 58.0962 196.692 57.0082 196.66 55.9842C196.66 54.9602 196.628 53.9682 196.564 53.0082C197.556 51.6962 198.516 50.1602 199.444 48.4002C200.404 46.6082 201.252 44.7522 201.988 42.8322C202.724 40.9122 203.316 39.0082 203.764 37.1202C204.212 35.2002 204.436 33.4402 204.436 31.8402C204.436 30.9122 204.34 30.0642 204.148 29.2962C203.988 28.4962 203.716 27.8242 203.332 27.2802C202.948 26.7042 202.436 26.2722 201.796 25.9842C201.188 25.6642 200.436 25.5042 199.54 25.5042C198.676 25.5042 197.924 25.7922 197.284 26.3682C196.644 26.9122 196.116 27.6642 195.7 28.6242C195.284 29.5522 194.98 30.6402 194.788 31.8882C194.596 33.1042 194.5 34.3682 194.5 35.6802C194.5 37.3442 194.532 39.1682 194.596 41.1522C194.66 43.1362 194.74 45.1362 194.836 47.1522C194.932 49.1362 195.012 51.0722 195.076 52.9602C195.096 53.5584 195.114 54.1351 195.128 54.6901L194.745 55.4562C194.489 55.9682 194.201 56.4642 193.881 56.9442C192.537 58.8962 191.161 60.3842 189.753 61.4082C188.377 62.4322 187.081 62.9442 185.865 62.9442C184.265 62.9442 183.017 62.1122 182.121 60.4482C182.761 59.5842 183.273 58.6242 183.657 57.5682C184.041 56.4802 184.233 55.2642 184.233 53.9202C184.233 52.5762 183.657 51.9042 182.505 51.9042C181.673 51.9042 181.033 52.3522 180.585 53.2482C180.137 54.1442 179.913 55.2002 179.913 56.4162C179.913 58.2722 180.169 59.7762 180.681 60.9282C179.753 61.9202 178.697 62.6882 177.513 63.2322C176.329 63.7762 175.193 64.0482 174.105 64.0482C172.761 64.0482 171.641 63.6162 170.745 62.7522C169.849 61.8882 169.401 60.4962 169.401 58.5762C169.401 57.5842 169.593 56.5762 169.977 55.5522C170.361 54.5282 170.905 53.6002 171.609 52.7682C172.313 51.9042 173.161 51.2162 174.153 50.7042C175.177 50.1602 176.313 49.8882 177.561 49.8882C178.489 49.8882 179.193 50.0002 179.673 50.2242C180.153 50.4162 180.585 50.6882 180.969 51.0402H181.017C181.049 51.0402 181.081 51.0562 181.113 51.0882C181.209 51.0882 181.321 51.0562 181.449 50.9922C181.577 50.9282 181.641 50.8322 181.641 50.7042C181.641 50.4162 181.305 50.1122 180.633 49.7922C179.961 49.4402 179.017 49.2642 177.801 49.2642C176.297 49.2642 174.905 49.5842 173.625 50.2242C172.345 50.8642 171.225 51.6802 170.265 52.6722C169.337 53.6322 168.617 54.7202 168.105 55.9362C167.561 57.1202 167.289 58.2882 167.289 59.4402C167.289 60.4002 167.449 61.2482 167.769 61.9842C168.089 62.6882 168.521 63.2802 169.065 63.7602C169.577 64.2082 170.185 64.5442 170.889 64.7682C171.625 64.9922 172.393 65.1042 173.193 65.1042C174.537 65.1042 175.897 64.8162 177.273 64.2402C178.681 63.6642 179.945 62.8162 181.065 61.6962C182.025 63.4242 183.417 64.2882 185.241 64.2882C186.681 64.2882 188.233 63.6962 189.897 62.5122C191.561 61.3282 193.209 59.5202 194.841 57.0882C194.952 56.9209 195.06 56.7536 195.164 56.5863C195.169 57.0434 195.172 57.4827 195.172 57.9042C195.172 58.3202 195.156 58.7842 195.124 59.2962C195.092 59.7762 195.076 60.2562 195.076 60.7362C195.044 61.2162 195.012 61.6642 194.98 62.0802C194.948 62.4962 194.932 62.8482 194.932 63.1362C194.9 63.8082 195.06 64.1442 195.412 64.1442C195.572 64.1442 195.716 64.0802 195.844 63.9522C195.972 63.8242 196.116 63.4882 196.276 62.9442C196.564 61.9522 196.996 60.8002 197.572 59.4882C198.148 58.1442 198.836 56.8802 199.636 55.6962C200.468 54.4802 201.396 53.4562 202.42 52.6242C203.444 51.7602 204.564 51.3282 205.78 51.3282C206.964 51.3282 207.796 51.6802 208.276 52.3842C208.788 53.0882 209.044 53.9202 209.044 54.8802C209.044 55.6482 208.868 56.4002 208.516 57.1362C208.164 57.8402 207.668 58.4802 207.028 59.0562C206.42 59.6002 205.684 60.0482 204.82 60.4002C203.956 60.7522 203.028 60.9282 202.036 60.9282C201.396 60.9282 200.9 60.8482 200.548 60.6882C200.228 60.4962 199.94 60.4002 199.684 60.4002C199.492 60.3362 199.38 60.3042 199.348 60.3042C198.964 60.3042 198.772 60.4482 198.772 60.7362C198.772 60.8642 198.836 61.0082 198.964 61.1682C199.924 62.5442 201.028 63.5362 202.276 64.1442C203.524 64.7842 204.836 65.1042 206.212 65.1042C208.42 65.1042 210.644 64.4002 212.884 62.9922C215.124 61.5522 217.124 59.5842 218.884 57.0882ZM202.18 28.3362C202.788 29.4242 203.092 30.8802 203.092 32.7042C203.092 34.1442 202.916 35.7122 202.564 37.4082C202.244 39.1042 201.78 40.8162 201.172 42.5442C200.596 44.2402 199.908 45.9042 199.108 47.5362C198.308 49.1362 197.444 50.5602 196.516 51.8082C196.452 50.3042 196.388 48.8322 196.324 47.3922C196.26 45.9522 196.196 44.4642 196.132 42.9282C196.1 41.3922 196.068 39.7602 196.036 38.0322C196.004 36.3042 195.988 34.3842 195.988 32.2722C195.988 31.5042 196.068 30.7842 196.228 30.1122C196.388 29.4402 196.612 28.8482 196.9 28.3362C197.188 27.8242 197.524 27.4242 197.908 27.1362C198.324 26.8162 198.772 26.6562 199.252 26.6562C200.628 26.6562 201.604 27.2162 202.18 28.3362ZM183.225 53.0562C183.385 53.3442 183.465 53.7282 183.465 54.2082C183.465 55.2322 183.305 56.2082 182.985 57.1362C182.697 58.0642 182.281 58.8962 181.737 59.6322C181.225 58.4802 180.921 57.0562 180.825 55.3602C180.793 54.5602 180.921 53.9042 181.209 53.3922C181.497 52.8482 181.913 52.5762 182.457 52.5762C182.809 52.5762 183.065 52.7362 183.225 53.0562ZM227.235 51.1842C227.235 50.3202 227.011 49.6162 226.563 49.0722C226.147 48.4962 225.459 48.2082 224.499 48.2082C223.987 48.2082 223.523 48.3682 223.107 48.6882C222.691 49.0082 222.339 49.4402 222.051 49.9842C221.763 50.4962 221.539 51.1042 221.379 51.8082C221.219 52.5122 221.139 53.2482 221.139 54.0162C221.139 55.2322 221.267 56.3202 221.523 57.2802C221.811 58.2082 222.211 59.0242 222.723 59.7282C223.395 59.1842 224.003 58.5602 224.547 57.8562C225.091 57.1522 225.555 56.4162 225.939 55.6482C226.355 54.8802 226.675 54.1122 226.899 53.3442C227.123 52.5762 227.235 51.8562 227.235 51.1842Z" fill="#FFF9F4"/>
<path fill-rule="evenodd" clip-rule="evenodd" d="M137.639 49.1202C137.679 51.3992 137.713 53.8281 137.74 56.4069C137.752 57.5116 137.762 58.6438 137.772 59.8036C137.776 60.27 137.779 60.7409 137.783 61.2162C137.783 62.5602 138.103 63.2002 138.743 63.1362C139.031 63.1362 139.207 63.0402 139.271 62.8482C139.335 62.6562 139.367 62.3362 139.367 61.8882C139.367 60.5913 139.357 59.2488 139.336 57.8607C139.321 56.7827 139.299 55.6772 139.271 54.5442L139.264 53.9844C139.232 51.5723 139.186 49.1189 139.127 46.6242L139.031 38.5602C138.999 35.8402 138.983 33.2002 138.983 30.6402C138.983 30.4162 138.903 30.2242 138.743 30.0642C138.615 29.9042 138.423 29.8242 138.167 29.8242C137.943 29.8882 137.751 29.9682 137.591 30.0642C137.431 30.1602 137.351 30.3362 137.351 30.5922C137.351 30.8162 137.367 31.7122 137.399 33.2802C137.431 34.8482 137.463 36.9762 137.495 39.6642C137.559 42.3202 137.607 45.4722 137.639 49.1202Z" fill="#FFF9F4"/>
</svg>
