<svg viewBox="0 0 16 16" xmlns="http://www.w3.org/2000/svg" xmlns:xlink="http://www.w3.org/1999/xlink" width="16.000000" height="16.000000" fill="none">
	<rect id="social media / 24 / Outline" width="16.000000" height="16.000000" x="0.000000" y="0.000000" fill="rgb(255,255,255)" fill-opacity="0" />
	<path id="Vector" d="M12.5533 6.29366C12.4921 6.20319 12.4097 6.12912 12.3132 6.07797C12.2167 6.02682 12.1091 6.00016 11.9999 6.00033L9.99992 6.00033L9.99992 4.66699L11.4666 4.66699C11.6434 4.66699 11.813 4.59675 11.938 4.47173C12.063 4.34671 12.1333 4.17714 12.1333 4.00033L12.1333 1.33366C12.1333 1.15685 12.063 0.987279 11.938 0.862254C11.813 0.73723 11.6434 0.666992 11.4666 0.666992L9.33325 0.666992C8.30775 0.666992 7.32425 1.07437 6.59911 1.79951C5.87397 2.52465 5.46659 3.50816 5.46659 4.53366L5.46659 6.00033L3.99992 6.00033C3.82311 6.00033 3.65354 6.07056 3.52851 6.19559C3.40349 6.32061 3.33325 6.49018 3.33325 6.66699L3.33325 9.33366C3.33325 9.51047 3.40349 9.68004 3.52851 9.80506C3.65354 9.93009 3.82311 10.0003 3.99992 10.0003L5.46659 10.0003L5.46659 14.667C5.46659 14.8438 5.53682 15.0134 5.66185 15.1384C5.78687 15.2634 5.95644 15.3337 6.13325 15.3337L9.33325 15.3337C9.51006 15.3337 9.67963 15.2634 9.80466 15.1384C9.92968 15.0134 9.99992 14.8438 9.99992 14.667L9.99992 10.0003L10.9333 10.0003C11.0668 10.0005 11.1973 9.96049 11.3078 9.8856C11.4183 9.81072 11.5038 9.70437 11.5533 9.58033L12.6199 6.91366C12.6602 6.81271 12.6752 6.70345 12.6635 6.59538C12.6519 6.48732 12.6141 6.38374 12.5533 6.29366ZM10.4799 8.66699L9.33325 8.66699C9.15644 8.66699 8.98687 8.73723 8.86185 8.86226C8.73682 8.98728 8.66659 9.15685 8.66659 9.33366L8.66659 14.0003L6.79992 14.0003L6.79992 9.33366C6.79992 9.15685 6.72968 8.98728 6.60466 8.86226C6.47963 8.73723 6.31006 8.66699 6.13325 8.66699L4.66659 8.66699L4.66659 7.33366L6.13325 7.33366C6.31006 7.33366 6.47963 7.26342 6.60466 7.1384C6.72968 7.01337 6.79992 6.8438 6.79992 6.66699L6.79992 4.53366C6.80168 3.86232 7.06915 3.21898 7.54386 2.74427C8.01857 2.26955 8.66191 2.00209 9.33325 2.00033L10.7999 2.00033L10.7999 3.33366L10.2666 3.33366C10.0409 3.30077 9.81079 3.31458 9.59062 3.37421C9.37045 3.43384 9.16486 3.53803 8.98659 3.68033C8.8784 3.79359 8.79427 3.92759 8.73927 4.07425C8.68428 4.22091 8.65955 4.37719 8.66659 4.53366L8.66659 6.66699C8.66659 6.8438 8.73682 7.01337 8.86185 7.1384C8.98687 7.26342 9.15644 7.33366 9.33325 7.33366L11.0133 7.33366L10.4799 8.66699Z" fill="rgb(255,255,255)" fill-rule="nonzero" />
</svg>
