<svg viewBox="0 0 16 16" xmlns="http://www.w3.org/2000/svg" xmlns:xlink="http://www.w3.org/1999/xlink" width="16.000000" height="16.000000" fill="none">
	<rect id="social network / 24 / Outline" width="16.000000" height="16.000000" x="0.000000" y="0.000000" fill="rgb(255,255,255)" fill-opacity="0" />
	<path id="Vector" d="M9.92671 6.98699L7.92671 5.82699C7.74902 5.72201 7.54642 5.66663 7.34004 5.66663C7.13366 5.66663 6.93106 5.72201 6.75337 5.82699C6.57433 5.92793 6.4259 6.07539 6.3238 6.25377C6.2217 6.43215 6.16972 6.63482 6.17337 6.84033L6.17337 9.16033C6.16972 9.36583 6.2217 9.5685 6.3238 9.74688C6.4259 9.92526 6.57433 10.0727 6.75337 10.1737C6.93106 10.2786 7.13366 10.334 7.34004 10.334C7.54642 10.334 7.74902 10.2786 7.92671 10.1737L9.92671 9.01366C10.0977 8.90872 10.2389 8.76169 10.3369 8.58661C10.4348 8.41154 10.4863 8.21428 10.4863 8.01366C10.4863 7.81304 10.4348 7.61578 10.3369 7.4407C10.2389 7.26563 10.0977 7.1186 9.92671 7.01366L9.92671 6.98699ZM7.49337 8.88033L7.49337 7.12033L9.01337 8.00033L7.49337 8.88033ZM12.6667 2.66699L3.33337 2.66699C2.80294 2.66699 2.29423 2.87771 1.91916 3.25278C1.54409 3.62785 1.33337 4.13656 1.33337 4.66699L1.33337 11.3337C1.33337 11.8641 1.54409 12.3728 1.91916 12.7479C2.29423 13.1229 2.80294 13.3337 3.33337 13.3337L12.6667 13.3337C13.1971 13.3337 13.7058 13.1229 14.0809 12.7479C14.456 12.3728 14.6667 11.8641 14.6667 11.3337L14.6667 4.66699C14.6667 4.13656 14.456 3.62785 14.0809 3.25278C13.7058 2.87771 13.1971 2.66699 12.6667 2.66699ZM13.3334 11.3337C13.3334 11.5105 13.2631 11.68 13.1381 11.8051C13.0131 11.9301 12.8435 12.0003 12.6667 12.0003L3.33337 12.0003C3.15656 12.0003 2.98699 11.9301 2.86197 11.8051C2.73695 11.68 2.66671 11.5105 2.66671 11.3337L2.66671 4.66699C2.66671 4.49018 2.73695 4.32061 2.86197 4.19559C2.98699 4.07056 3.15656 4.00033 3.33337 4.00033L12.6667 4.00033C12.8435 4.00033 13.0131 4.07056 13.1381 4.19559C13.2631 4.32061 13.3334 4.49018 13.3334 4.66699L13.3334 11.3337Z" fill="rgb(255,255,255)" fill-rule="nonzero" />
</svg>
