<svg width="106" height="79" viewBox="0 0 106 79" fill="none" xmlns="http://www.w3.org/2000/svg">
<path d="M70.6757 65.0932C67.9449 62.7435 65.3095 60.2349 62.7692 57.5676C60.2924 54.8368 57.9745 52.0425 55.8152 49.1847C53.7195 46.3269 51.7826 43.4373 50.0044 40.516C48.2897 37.5311 46.829 34.6098 45.6224 31.752C43.4631 34.1018 41.304 36.4833 39.1447 38.8965C37.049 41.2463 35.1756 43.6278 33.5244 46.0411C31.8732 48.3909 30.5396 50.7724 29.5235 53.1856C28.4439 55.5354 27.9041 57.8852 27.9041 60.2349C27.9041 63.0292 28.3804 65.4425 29.333 67.4747C30.2221 69.4435 31.4287 71.0629 32.9528 72.333C34.477 73.6032 36.2234 74.524 38.1921 75.0956C40.1608 75.6672 42.193 75.9529 44.2888 75.9529C48.4802 75.9529 52.9256 74.9686 57.6252 72.9999C62.3247 71.0311 66.6747 68.3956 70.6757 65.0932ZM58.8635 8.60364C58.8635 6.38089 58.3555 4.79321 57.3394 3.84061C56.3868 2.8245 55.3389 2.31644 54.1958 2.31644C53.2432 2.31644 52.2271 2.63397 51.1475 3.26905C50.1314 3.90412 49.1788 4.82497 48.2897 6.0316C47.4641 7.17473 46.7655 8.57189 46.1939 10.2231C45.6224 11.8743 45.3366 13.6842 45.3366 15.6529C45.3366 19.2728 46.0034 23.115 47.3371 27.1795C48.9247 25.5283 50.4172 23.9089 51.8143 22.3212C53.2115 20.7335 54.4181 19.1776 55.4342 17.6534C56.5138 16.0657 57.3394 14.5416 57.9109 13.0809C58.546 11.5567 58.8635 10.0643 58.8635 8.60364ZM95.5385 78.1439C95.5385 78.3345 95.4115 78.525 95.1575 78.7155C94.9034 78.906 94.5224 79.0013 94.0143 79.0013C90.2039 77.7947 86.4571 76.1117 82.7737 73.9525C79.0902 71.7297 75.5022 69.1577 72.0093 66.2364C69.596 68.0781 67.0876 69.761 64.4838 71.2852C61.88 72.8093 59.2128 74.1112 56.482 75.1909C53.8147 76.2705 51.1157 77.0961 48.3849 77.6676C45.7176 78.2392 43.1457 78.525 40.6689 78.525C38.2556 78.525 35.9694 78.1757 33.8102 77.4771C31.6509 76.842 29.7775 75.8577 28.1899 74.524C26.6022 73.1269 25.3639 71.4122 24.4748 69.38C23.5221 67.3477 23.0459 64.9662 23.0459 62.2354C23.0459 59.3141 23.7127 56.4563 25.0463 53.6619C26.38 50.8041 28.0946 48.0098 30.1903 45.279C32.286 42.5482 34.604 39.8809 37.1443 37.2771C39.748 34.6733 42.2883 32.133 44.7651 29.6563C42.9234 24.7027 42.0025 20.2254 42.0025 16.2245C42.0025 13.8747 42.4153 11.7155 43.2409 9.74677C44.13 7.77805 45.2413 6.09511 46.575 4.69795C47.9086 3.3008 49.3693 2.22118 50.957 1.45909C52.6082 0.6335 54.164 0.220703 55.6247 0.220703C57.3394 0.220703 58.8953 0.792267 60.2924 1.9354C61.6896 3.01501 62.3881 4.82497 62.3881 7.36525C62.3881 8.95293 61.9754 10.6041 61.1498 12.3188C60.3877 14.0335 59.3399 15.8117 58.0062 17.6534C56.7361 19.4316 55.2119 21.3051 53.4337 23.2738C51.7191 25.179 49.9091 27.1477 48.0039 29.1799C50.0996 34.9591 53.2114 40.8335 57.3394 46.8032C61.5309 52.7093 66.6112 58.2345 72.5808 63.3785C75.8197 60.4572 78.4234 57.2501 80.3922 53.7572C82.3609 50.2643 83.3452 46.6127 83.3452 42.8022C83.3452 41.5321 83.1547 40.2619 82.7737 38.9918C82.4561 37.6582 81.7893 36.261 80.7732 34.8003C80.7732 34.6733 80.9637 34.5463 81.3448 34.4193C81.7258 34.2288 82.0751 34.1335 82.3926 34.1335C83.2817 34.1335 83.9803 34.451 84.4883 35.0861C85.0599 35.6577 85.4727 36.3563 85.7267 37.1818C86.0442 38.0074 86.2347 38.8648 86.2982 39.7539C86.4253 40.5795 86.4888 41.2463 86.4888 41.7544C86.4888 45.9458 85.3139 50.0103 82.9642 53.9477C80.6779 57.8217 77.6931 61.3781 74.0097 64.6169C80.1699 69.888 87.1238 74.1747 94.8717 77.4771C95.3162 77.7311 95.5385 77.9534 95.5385 78.1439Z" fill="#FFA55C"/>
<path d="M19.0325 50.5602C19.0325 48.5762 18.9045 46.9282 18.6485 45.6162C18.4245 44.3042 18.1045 43.6482 17.6885 43.6482C17.4325 43.6482 17.1925 43.8402 16.9685 44.2242C16.7445 44.5762 16.5525 45.0882 16.3925 45.7602C16.2645 46.4002 16.1525 47.1682 16.0565 48.0642C15.9925 48.9282 15.9605 49.8722 15.9605 50.8962C15.9605 52.7202 16.0885 54.6882 16.3445 56.8002C16.6005 58.8802 17.0485 60.8962 17.6885 62.8482C18.1365 60.8002 18.4725 58.7042 18.6965 56.5602C18.9205 54.3842 19.0325 52.3842 19.0325 50.5602ZM39.1445 28.7682C39.1445 28.9282 39.0805 29.0562 38.9525 29.1522C38.8245 29.2482 38.6645 29.3602 38.4725 29.4882C37.5125 30.0642 36.7285 30.8642 36.1205 31.8882C35.5125 32.9122 35.0165 34.0322 34.6325 35.2482C34.2805 36.4642 34.0405 37.7122 33.9125 38.9922C33.7845 40.2402 33.7205 41.3922 33.7205 42.4482C33.7205 43.1842 33.7525 44.0962 33.8165 45.1842C33.9125 46.2402 34.0085 47.4082 34.1045 48.6882C34.2325 49.9682 34.3285 51.3282 34.3925 52.7682C34.4885 54.1762 34.5365 55.6162 34.5365 57.0882C34.5365 59.1682 34.4085 61.1842 34.1525 63.1362C33.9285 65.0882 33.4645 66.8322 32.7605 68.3682C32.0885 69.9042 31.1445 71.1362 29.9285 72.0642C28.7125 72.9922 27.1285 73.4562 25.1765 73.4562C24.2805 73.4562 23.4325 73.2802 22.6325 72.9282C21.8645 72.6082 21.1445 72.1442 20.4725 71.5362C19.8325 70.9282 19.2405 70.2242 18.6965 69.4242C18.1845 68.6242 17.7205 67.7442 17.3045 66.7842C16.8885 67.9042 16.3925 68.9442 15.8165 69.9042C15.2725 70.8642 14.6645 71.6962 13.9925 72.4002C13.3205 73.1042 12.5845 73.6482 11.7845 74.0322C10.9845 74.4162 10.1365 74.6082 9.24047 74.6082C7.86447 74.6082 6.69647 74.2562 5.73647 73.5522C4.80847 72.8482 4.04047 71.9202 3.43247 70.7682C2.82447 69.6482 2.34447 68.3682 1.99247 66.9282C1.67247 65.4562 1.43247 63.9682 1.27247 62.4642C1.11247 60.9282 1.00047 59.4402 0.936472 58.0002C0.904472 56.5282 0.872472 55.2322 0.840472 54.1122C0.776472 52.0962 0.808472 50.1922 0.936472 48.4002C1.09647 46.5762 1.27247 44.9442 1.46447 43.5042C1.65647 42.0322 1.84847 40.7682 2.04047 39.7122C2.23247 38.6562 2.36047 37.8722 2.42447 37.3602C2.45647 37.1682 2.64847 37.0402 3.00047 36.9762C3.38447 36.9122 3.72047 36.8802 4.00847 36.8802C4.23247 36.8802 4.42447 36.9122 4.58447 36.9762C4.74447 37.0082 4.82447 37.1042 4.82447 37.2642C4.82447 37.4562 4.74447 37.7922 4.58447 38.2722C4.42447 38.7202 4.18447 39.5842 3.86447 40.8642C3.73647 41.4402 3.59247 42.2722 3.43247 43.3602C3.30447 44.4162 3.17647 45.6162 3.04847 46.9602C2.95247 48.3042 2.87247 49.7442 2.80847 51.2802C2.74447 52.7842 2.71247 54.2562 2.71247 55.6962C2.71247 56.8162 2.76047 58.0482 2.85647 59.3922C2.95247 60.7042 3.11247 62.0162 3.33647 63.3282C3.56047 64.6082 3.86447 65.8562 4.24847 67.0722C4.63247 68.2882 5.09647 69.3602 5.64047 70.2882C6.21647 71.2162 6.88847 71.9522 7.65647 72.4962C8.42447 73.0722 9.32047 73.3602 10.3445 73.3602C11.1125 73.3602 11.8165 73.1682 12.4565 72.7842C13.0965 72.4002 13.6885 71.8562 14.2325 71.1522C14.7765 70.4802 15.2565 69.6802 15.6725 68.7522C16.1205 67.8242 16.5205 66.8162 16.8725 65.7282C16.1365 63.7122 15.5925 61.5682 15.2405 59.2962C14.8885 57.0242 14.7125 54.9282 14.7125 53.0082C14.7125 51.6002 14.7605 50.2082 14.8565 48.8322C14.9845 47.4562 15.1605 46.2242 15.3845 45.1362C15.6085 44.0482 15.8965 43.1682 16.2485 42.4962C16.6005 41.8242 17.0165 41.4882 17.4965 41.4882C17.8805 41.4882 18.2165 41.7282 18.5045 42.2082C18.8245 42.6882 19.0805 43.3442 19.2725 44.1762C19.4965 45.0082 19.6565 46.0002 19.7525 47.1522C19.8805 48.2722 19.9445 49.4882 19.9445 50.8002C19.9445 52.9122 19.8005 55.1362 19.5125 57.4722C19.2245 59.7762 18.7765 62.0322 18.1685 64.2402C18.5845 65.3602 19.0645 66.4002 19.6085 67.3602C20.1525 68.2882 20.7605 69.1042 21.4325 69.8082C22.1365 70.5122 22.9045 71.0562 23.7365 71.4402C24.6005 71.8562 25.5445 72.0642 26.5685 72.0642C27.9765 72.0642 29.1285 71.7122 30.0245 71.0082C30.9205 70.3362 31.6245 69.4082 32.1365 68.2242C32.6485 67.0082 33.0005 65.6162 33.1925 64.0482C33.3845 62.4482 33.4805 60.7362 33.4805 58.9122C33.4805 57.2802 33.4165 55.6002 33.2885 53.8722C33.1925 52.1442 33.0805 50.4322 32.9525 48.7362C32.8245 47.0082 32.6965 45.3442 32.5685 43.7442C32.4725 42.1122 32.4245 40.6082 32.4245 39.2322C32.4245 38.2402 32.5685 37.0882 32.8565 35.7762C33.1765 34.4642 33.5925 33.2322 34.1045 32.0802C34.6485 30.8962 35.2565 29.9042 35.9285 29.1042C36.6325 28.2722 37.3685 27.8562 38.1365 27.8562C38.3605 27.8562 38.5845 27.9682 38.8085 28.1922C39.0325 28.3842 39.1445 28.5762 39.1445 28.7682Z" fill="#1F1711"/>
<path d="M91.8381 42.0642C90.6541 42.0642 89.5181 42.1922 88.4301 42.4482C87.3741 42.7042 86.4301 43.0082 85.5981 43.3602C84.7981 43.7122 84.1421 44.0802 83.6301 44.4642C83.1501 44.8482 82.9101 45.1842 82.9101 45.4722C82.9101 45.8562 83.3581 46.0482 84.2541 46.0482C85.7901 46.0482 87.2461 45.6802 88.6221 44.9442C90.0301 44.2082 91.2941 43.2482 92.4141 42.0642H91.8381ZM105.806 49.2642C105.806 50.8322 105.358 52.5282 104.462 54.3522C103.598 56.1762 102.398 57.9842 100.862 59.7762C99.326 61.5682 97.502 63.2962 95.39 64.9602C93.278 66.6242 91.0061 68.0962 88.5741 69.3762C86.1421 70.6562 83.5821 71.6642 80.8941 72.4002C78.2061 73.1682 75.5182 73.5522 72.8302 73.5522C72.3822 73.5522 71.8862 73.5362 71.3422 73.5042C70.8302 73.4722 70.3502 73.3922 69.9022 73.2642C69.4542 73.1682 69.0703 72.9922 68.7503 72.7362C68.4303 72.5122 68.2703 72.1922 68.2703 71.7762C68.2703 71.2002 68.5582 70.6402 69.1342 70.0962C69.7102 69.5842 70.4462 69.1042 71.3422 68.6562C72.2382 68.2082 73.2142 67.8082 74.2702 67.4562C75.3262 67.1042 76.3341 66.8002 77.2941 66.5442C78.2861 66.2882 79.1501 66.0802 79.8861 65.9202C80.6221 65.7922 81.1181 65.7282 81.3741 65.7282C81.5661 65.7282 81.7101 65.7762 81.8061 65.8722C81.9021 65.9682 81.9501 66.0642 81.9501 66.1602C81.9501 66.3202 81.8701 66.4002 81.7101 66.4002H81.0861C80.2541 66.4002 79.1982 66.5602 77.9182 66.8802C76.6382 67.2002 75.3902 67.6002 74.1742 68.0802C72.9582 68.5602 71.9182 69.0882 71.0542 69.6642C70.1902 70.2722 69.7582 70.8322 69.7582 71.3442C69.7582 71.6962 69.8702 71.9682 70.0942 72.1602C70.3502 72.3842 70.6542 72.5602 71.0062 72.6882C71.3582 72.8162 71.7262 72.8962 72.1102 72.9282C72.4942 72.9922 72.8302 73.0242 73.1182 73.0242C75.3902 73.0242 77.7101 72.6402 80.0781 71.8722C82.4781 71.1042 84.7981 70.0802 87.0381 68.8002C89.3101 67.5522 91.438 66.0962 93.422 64.4322C95.438 62.8002 97.198 61.1042 98.702 59.3442C100.206 57.5522 101.39 55.7762 102.254 54.0162C103.118 52.2242 103.55 50.5602 103.55 49.0242C103.55 47.1362 102.766 45.5682 101.198 44.3202C99.662 43.0402 97.118 42.3042 93.566 42.1122C92.126 43.4562 90.5421 44.5442 88.8141 45.3762C87.1181 46.2082 85.3901 46.6242 83.6301 46.6242C82.3821 46.6242 81.7581 46.3202 81.7581 45.7122C81.7581 45.3282 82.0141 44.8962 82.5261 44.4162C83.0701 43.9042 83.8061 43.4242 84.7341 42.9762C85.6941 42.5282 86.8301 42.1602 88.1421 41.8722C89.4541 41.5522 90.8941 41.3922 92.4621 41.3922H93.038C94.094 40.1442 94.942 38.7842 95.582 37.3122C96.222 35.8082 96.542 34.3362 96.542 32.8962C96.542 31.9362 96.366 31.0242 96.014 30.1602C95.694 29.2642 95.15 28.4962 94.382 27.8562C93.646 27.2162 92.6701 26.7042 91.4541 26.3202C90.2701 25.9362 88.8301 25.7442 87.1341 25.7442C85.9821 25.7442 84.3821 25.9042 82.3341 26.2242C80.3181 26.5442 78.1262 27.0402 75.7582 27.7122C73.4222 28.3522 71.0383 29.1682 68.6063 30.1602C66.1743 31.1522 63.9664 32.3042 61.9824 33.6162C59.9984 34.9282 58.3824 36.4162 57.1344 38.0802C55.8864 39.7442 55.2625 41.5842 55.2625 43.6002C55.2625 43.8562 55.2145 44.0802 55.1185 44.2722C55.0225 44.4322 54.9265 44.5122 54.8305 44.5122C54.7025 44.5122 54.6065 44.3842 54.5425 44.1282C54.4465 43.8402 54.3985 43.3762 54.3985 42.7362C54.6865 40.6562 55.5344 38.7682 56.9424 37.0722C58.3504 35.3762 60.0944 33.8722 62.1744 32.5602C64.2224 31.2162 66.4783 30.0642 68.9423 29.1042C71.4063 28.1442 73.8381 27.3602 76.2381 26.7522C78.6701 26.1122 80.9261 25.6482 83.0061 25.3602C85.1181 25.0402 86.8461 24.8802 88.1901 24.8802C90.1421 24.8802 91.79 25.0722 93.134 25.4562C94.51 25.8082 95.63 26.3042 96.494 26.9442C97.358 27.5522 97.982 28.2882 98.366 29.1522C98.75 30.0162 98.942 30.9282 98.942 31.8882C98.942 33.4562 98.51 35.0882 97.646 36.7842C96.814 38.4482 95.678 40.0002 94.238 41.4402C96.286 41.5362 98.046 41.8082 99.518 42.2562C100.99 42.6722 102.19 43.2322 103.118 43.9362C104.046 44.6082 104.718 45.4082 105.134 46.3362C105.582 47.2322 105.806 48.2082 105.806 49.2642ZM80.3661 61.8882C80.3661 62.3362 80.3341 62.6562 80.2701 62.8482C80.2061 63.0402 80.0301 63.1362 79.7421 63.1362C79.1021 63.2002 78.7821 62.5602 78.7821 61.2162C78.7501 56.8002 78.7022 52.7682 78.6382 49.1202C78.6062 45.4722 78.5582 42.3202 78.4942 39.6642C78.4622 36.9762 78.4301 34.8482 78.3981 33.2802C78.3661 31.7122 78.3501 30.8162 78.3501 30.5922C78.3501 30.3362 78.4301 30.1602 78.5901 30.0642C78.7501 29.9682 78.9421 29.8882 79.1661 29.8242C79.4221 29.8242 79.6141 29.9042 79.7421 30.0642C79.9021 30.2242 79.9821 30.4162 79.9821 30.6402C79.9821 33.2002 79.9981 35.8402 80.0301 38.5602C80.0621 41.2482 80.0941 43.9362 80.1261 46.6242C80.1901 49.3122 80.2381 51.9522 80.2701 54.5442C80.3341 57.1362 80.3661 59.5842 80.3661 61.8882Z" fill="#1F1711"/>
</svg>
